<svg xmlns="http://www.w3.org/2000/svg" viewBox="0 0 1280 720" width="1280" height="720"><defs><filter id="sh" x="-20%" y="-20%" width="140%" height="150%"><feDropShadow dx="0" dy="10" stdDeviation="14" flood-color="#0b1020" flood-opacity=".16"/></filter></defs><rect x="0" y="0" width="1280" height="720" rx="0" fill="#f1f3f8" opacity="1" /><rect x="0" y="0" width="1280" height="84" rx="0" fill="#fff" opacity="1" /><circle cx="60" cy="42" r="16" fill="#5b5bf0" opacity="1" /><text x="90" y="50" font-family="Helvetica Neue, Helvetica, Arial, sans-serif" font-size="24" font-weight="700" fill="#141626" text-anchor="start" letter-spacing="0">Sprint board</text><circle cx="1120" cy="42" r="16" fill="#ffd6a5" opacity="1" stroke="#fff" stroke-width="3" /><circle cx="1152" cy="42" r="16" fill="#c3b8ff" opacity="1" stroke="#fff" stroke-width="3" /><circle cx="1184" cy="42" r="16" fill="#b5ead7" opacity="1" stroke="#fff" stroke-width="3" /><rect x="50" y="116" width="380" height="570" rx="22" fill="#e8ebf4" opacity="1" /><circle cx="80" cy="152" r="7" fill="#8a8fa3" opacity="1" /><text x="98" y="158" font-family="Helvetica Neue, Helvetica, Arial, sans-serif" font-size="19" font-weight="700" fill="#141626" text-anchor="start" letter-spacing="0">To do</text><rect x="368" y="138" width="44" height="28" rx="14" fill="#fff" opacity="1" /><text x="390" y="158" font-family="Helvetica Neue, Helvetica, Arial, sans-serif" font-size="15" font-weight="700" fill="#5a5f78" text-anchor="middle" letter-spacing="0">3</text><rect x="66" y="188" width="348" height="132" rx="18" fill="#fff" opacity="1" filter="url(#sh)"/><rect x="84" y="208" width="74" height="24" rx="12" fill="#ffe1e6" opacity="1" /><rect x="84" y="246" width="240" height="13" rx="6.5" fill="#1b1d2a" opacity="0.85" /><rect x="84" y="270" width="180" height="9" rx="4.5" fill="#a5a8bb" opacity="1" /><circle cx="100" cy="296" r="13" fill="#ffd6a5" opacity="1" /><circle cx="124" cy="296" r="13" fill="#c3b8ff" opacity="1" /><rect x="320" y="290" width="70" height="9" rx="4.5" fill="#c9cbd8" opacity="1" /><rect x="66" y="350" width="348" height="132" rx="18" fill="#fff" opacity="1" filter="url(#sh)"/><rect x="84" y="370" width="74" height="24" rx="12" fill="#e2e0ff" opacity="1" /><rect x="84" y="408" width="220" height="13" rx="6.5" fill="#1b1d2a" opacity="0.85" /><rect x="84" y="432" width="180" height="9" rx="4.5" fill="#a5a8bb" opacity="1" /><circle cx="100" cy="458" r="13" fill="#c3b8ff" opacity="1" /><circle cx="124" cy="458" r="13" fill="#b5ead7" opacity="1" /><rect x="320" y="452" width="70" height="9" rx="4.5" fill="#c9cbd8" opacity="1" /><rect x="66" y="512" width="348" height="132" rx="18" fill="#fff" opacity="1" filter="url(#sh)"/><rect x="84" y="532" width="74" height="24" rx="12" fill="#dcf7e9" opacity="1" /><rect x="84" y="570" width="200" height="13" rx="6.5" fill="#1b1d2a" opacity="0.85" /><rect x="84" y="594" width="180" height="9" rx="4.5" fill="#a5a8bb" opacity="1" /><circle cx="100" cy="620" r="13" fill="#b5ead7" opacity="1" /><circle cx="124" cy="620" r="13" fill="#ffc8dd" opacity="1" /><rect x="320" y="614" width="70" height="9" rx="4.5" fill="#c9cbd8" opacity="1" /><rect x="460" y="116" width="380" height="570" rx="22" fill="#e8ebf4" opacity="1" /><circle cx="490" cy="152" r="7" fill="#5b5bf0" opacity="1" /><text x="508" y="158" font-family="Helvetica Neue, Helvetica, Arial, sans-serif" font-size="19" font-weight="700" fill="#141626" text-anchor="start" letter-spacing="0">In progress</text><rect x="778" y="138" width="44" height="28" rx="14" fill="#fff" opacity="1" /><text x="800" y="158" font-family="Helvetica Neue, Helvetica, Arial, sans-serif" font-size="15" font-weight="700" fill="#5a5f78" text-anchor="middle" letter-spacing="0">3</text><rect x="476" y="188" width="348" height="132" rx="18" fill="#fff" opacity="1" filter="url(#sh)"/><rect x="494" y="208" width="74" height="24" rx="12" fill="#e2e0ff" opacity="1" /><rect x="494" y="246" width="240" height="13" rx="6.5" fill="#1b1d2a" opacity="0.85" /><rect x="494" y="270" width="180" height="9" rx="4.5" fill="#a5a8bb" opacity="1" /><circle cx="510" cy="296" r="13" fill="#c3b8ff" opacity="1" /><circle cx="534" cy="296" r="13" fill="#b5ead7" opacity="1" /><rect x="730" y="290" width="70" height="9" rx="4.5" fill="#c9cbd8" opacity="1" /><rect x="476" y="350" width="348" height="132" rx="18" fill="#fff" opacity="1" filter="url(#sh)"/><rect x="494" y="370" width="74" height="24" rx="12" fill="#dcf7e9" opacity="1" /><rect x="494" y="408" width="220" height="13" rx="6.5" fill="#1b1d2a" opacity="0.85" /><rect x="494" y="432" width="180" height="9" rx="4.5" fill="#a5a8bb" opacity="1" /><circle cx="510" cy="458" r="13" fill="#b5ead7" opacity="1" /><circle cx="534" cy="458" r="13" fill="#ffc8dd" opacity="1" /><rect x="730" y="452" width="70" height="9" rx="4.5" fill="#c9cbd8" opacity="1" /><rect x="476" y="512" width="348" height="132" rx="18" fill="#fff" opacity="1" filter="url(#sh)"/><rect x="494" y="532" width="74" height="24" rx="12" fill="#fff0d1" opacity="1" /><rect x="494" y="570" width="200" height="13" rx="6.5" fill="#1b1d2a" opacity="0.85" /><rect x="494" y="594" width="180" height="9" rx="4.5" fill="#a5a8bb" opacity="1" /><circle cx="510" cy="620" r="13" fill="#ffc8dd" opacity="1" /><circle cx="534" cy="620" r="13" fill="#bde0fe" opacity="1" /><rect x="730" y="614" width="70" height="9" rx="4.5" fill="#c9cbd8" opacity="1" /><rect x="870" y="116" width="380" height="570" rx="22" fill="#e8ebf4" opacity="1" /><circle cx="900" cy="152" r="7" fill="#1fbf75" opacity="1" /><text x="918" y="158" font-family="Helvetica Neue, Helvetica, Arial, sans-serif" font-size="19" font-weight="700" fill="#141626" text-anchor="start" letter-spacing="0">Done</text><rect x="1188" y="138" width="44" height="28" rx="14" fill="#fff" opacity="1" /><text x="1210" y="158" font-family="Helvetica Neue, Helvetica, Arial, sans-serif" font-size="15" font-weight="700" fill="#5a5f78" text-anchor="middle" letter-spacing="0">3</text><rect x="886" y="188" width="348" height="132" rx="18" fill="#fff" opacity="1" filter="url(#sh)"/><rect x="904" y="208" width="74" height="24" rx="12" fill="#dcf7e9" opacity="1" /><rect x="904" y="246" width="240" height="13" rx="6.5" fill="#1b1d2a" opacity="0.85" /><rect x="904" y="270" width="180" height="9" rx="4.5" fill="#a5a8bb" opacity="1" /><circle cx="920" cy="296" r="13" fill="#b5ead7" opacity="1" /><circle cx="944" cy="296" r="13" fill="#ffc8dd" opacity="1" /><rect x="1140" y="290" width="70" height="9" rx="4.5" fill="#c9cbd8" opacity="1" /><rect x="886" y="350" width="348" height="132" rx="18" fill="#fff" opacity="1" filter="url(#sh)"/><rect x="904" y="370" width="74" height="24" rx="12" fill="#fff0d1" opacity="1" /><rect x="904" y="408" width="220" height="13" rx="6.5" fill="#1b1d2a" opacity="0.85" /><rect x="904" y="432" width="180" height="9" rx="4.5" fill="#a5a8bb" opacity="1" /><circle cx="920" cy="458" r="13" fill="#ffc8dd" opacity="1" /><circle cx="944" cy="458" r="13" fill="#bde0fe" opacity="1" /><rect x="1140" y="452" width="70" height="9" rx="4.5" fill="#c9cbd8" opacity="1" /><rect x="886" y="512" width="348" height="132" rx="18" fill="#fff" opacity="1" filter="url(#sh)"/><rect x="904" y="532" width="74" height="24" rx="12" fill="#ffe1e6" opacity="1" /><rect x="904" y="570" width="200" height="13" rx="6.5" fill="#1b1d2a" opacity="0.85" /><rect x="904" y="594" width="180" height="9" rx="4.5" fill="#a5a8bb" opacity="1" /><circle cx="920" cy="620" r="13" fill="#ffd6a5" opacity="1" /><circle cx="944" cy="620" r="13" fill="#c3b8ff" opacity="1" /><rect x="1140" y="614" width="70" height="9" rx="4.5" fill="#c9cbd8" opacity="1" /></svg>