<svg xmlns="http://www.w3.org/2000/svg" viewBox="0 0 1280 720" width="1280" height="720"><defs><filter id="sh" x="-20%" y="-20%" width="140%" height="150%"><feDropShadow dx="0" dy="10" stdDeviation="14" flood-color="#0b1020" flood-opacity=".16"/></filter></defs><rect x="0" y="0" width="1280" height="720" rx="0" fill="#eef0fb" opacity="1" /><rect x="0" y="0" width="400" height="720" rx="0" fill="#fff" opacity="1" /><text x="36" y="78" font-family="Helvetica Neue, Helvetica, Arial, sans-serif" font-size="30" font-weight="700" fill="#141626" text-anchor="start" letter-spacing="0">Messages</text><rect x="36" y="104" width="328" height="46" rx="23" fill="#f1f2f9" opacity="1" /><rect x="60" y="122" width="120" height="10" rx="5.0" fill="#b9bccb" opacity="1" /><circle cx="62" cy="206" r="26" fill="#ffd6a5" opacity="1" /><rect x="106" y="190" width="130" height="12" rx="6.0" fill="#1b1d2a" opacity="0.85" /><rect x="106" y="214" width="190" height="9" rx="4.5" fill="#a5a8bb" opacity="1" /><rect x="320" y="192" width="40" height="8" rx="4.0" fill="#c9cbd8" opacity="1" /><rect x="18" y="252" width="364" height="76" rx="18" fill="#ececff" opacity="1" /><circle cx="62" cy="290" r="26" fill="#c3b8ff" opacity="1" /><rect x="106" y="274" width="130" height="12" rx="6.0" fill="#1b1d2a" opacity="0.85" /><rect x="106" y="298" width="160" height="9" rx="4.5" fill="#a5a8bb" opacity="1" /><rect x="320" y="276" width="40" height="8" rx="4.0" fill="#c9cbd8" opacity="1" /><circle cx="62" cy="374" r="26" fill="#b5ead7" opacity="1" /><rect x="106" y="358" width="130" height="12" rx="6.0" fill="#1b1d2a" opacity="0.85" /><rect x="106" y="382" width="130" height="9" rx="4.5" fill="#a5a8bb" opacity="1" /><rect x="320" y="360" width="40" height="8" rx="4.0" fill="#c9cbd8" opacity="1" /><circle cx="62" cy="458" r="26" fill="#ffc8dd" opacity="1" /><rect x="106" y="442" width="130" height="12" rx="6.0" fill="#1b1d2a" opacity="0.85" /><rect x="106" y="466" width="190" height="9" rx="4.5" fill="#a5a8bb" opacity="1" /><rect x="320" y="444" width="40" height="8" rx="4.0" fill="#c9cbd8" opacity="1" /><circle cx="62" cy="542" r="26" fill="#bde0fe" opacity="1" /><rect x="106" y="526" width="130" height="12" rx="6.0" fill="#1b1d2a" opacity="0.85" /><rect x="106" y="550" width="160" height="9" rx="4.5" fill="#a5a8bb" opacity="1" /><rect x="320" y="528" width="40" height="8" rx="4.0" fill="#c9cbd8" opacity="1" /><circle cx="62" cy="626" r="26" fill="#e0c3fc" opacity="1" /><rect x="106" y="610" width="130" height="12" rx="6.0" fill="#1b1d2a" opacity="0.85" /><rect x="106" y="634" width="130" height="9" rx="4.5" fill="#a5a8bb" opacity="1" /><rect x="320" y="612" width="40" height="8" rx="4.0" fill="#c9cbd8" opacity="1" /><rect x="400" y="0" width="880" height="92" rx="0" fill="#fff" opacity="1" /><circle cx="452" cy="46" r="26" fill="#c3b8ff" opacity="1" /><rect x="496" y="32" width="140" height="13" rx="6.5" fill="#1b1d2a" opacity="0.85" /><rect x="496" y="56" width="80" height="9" rx="4.5" fill="#1fbf75" opacity="1" /><rect x="440" y="124" width="420" height="64" rx="24" fill="#fff" opacity="1" filter="url(#sh)"/><rect x="466" y="148" width="330" height="11" rx="5.5" fill="#1b1d2a" opacity="0.8" /><rect x="466" y="158" width="198.0" height="9" rx="4.5" fill="#a5a8bb" opacity="1" /><rect x="440" y="206" width="300" height="64" rx="24" fill="#fff" opacity="1" filter="url(#sh)"/><rect x="466" y="230" width="210" height="11" rx="5.5" fill="#1b1d2a" opacity="0.8" /><rect x="466" y="240" width="126.0" height="9" rx="4.5" fill="#a5a8bb" opacity="1" /><rect x="860" y="288" width="380" height="64" rx="24" fill="#5b5bf0" opacity="1" /><rect x="886" y="312" width="290" height="11" rx="5.5" fill="#fff" opacity="0.8" /><rect x="886" y="322" width="174.0" height="9" rx="4.5" fill="#dcdcff" opacity="1" /><rect x="440" y="370" width="500" height="84" rx="24" fill="#fff" opacity="1" filter="url(#sh)"/><rect x="466" y="394" width="410" height="11" rx="5.5" fill="#1b1d2a" opacity="0.8" /><rect x="466" y="424" width="246.0" height="9" rx="4.5" fill="#a5a8bb" opacity="1" /><rect x="920" y="472" width="320" height="64" rx="24" fill="#5b5bf0" opacity="1" /><rect x="946" y="496" width="230" height="11" rx="5.5" fill="#fff" opacity="0.8" /><rect x="946" y="506" width="138.0" height="9" rx="4.5" fill="#dcdcff" opacity="1" /><rect x="440" y="620" width="800" height="64" rx="32" fill="#fff" opacity="1" /><rect x="478" y="646" width="220" height="11" rx="5.5" fill="#c9cbd8" opacity="1" /><circle cx="1200" cy="652" r="24" fill="#5b5bf0" opacity="1" /></svg>