<svg xmlns="http://www.w3.org/2000/svg" viewBox="0 0 1200 800" width="1200" height="800"><defs><filter id="sh" x="-20%" y="-20%" width="140%" height="150%"><feDropShadow dx="0" dy="14" stdDeviation="16" flood-color="#0b1020" flood-opacity=".22"/></filter><linearGradient id="lg" x1="0" y1="0" x2="1" y2="1"><stop offset="0" stop-color="#ffe4e6"/><stop offset="1" stop-color="#fef3c7"/></linearGradient></defs><rect x="0" y="0" width="1200" height="800" rx="0" fill="url(#lg)" opacity="1"/><g transform="translate(70,100) scale(0.9) translate(-70,-100)"><g filter="url(#sh)"><rect x="70" y="100" width="900" height="700" rx="18" fill="#fff"/><clipPath id="hw3"><rect x="70" y="100" width="900" height="700" rx="18"/></clipPath><g clip-path="url(#hw3)"><rect x="70" y="100" width="900" height="44" rx="0" fill="#f6e9e1" opacity="1"/><circle cx="94" cy="122.0" r="6" fill="#ff5f57" opacity="1"/><circle cx="114" cy="122.0" r="6" fill="#febc2e" opacity="1"/><circle cx="134" cy="122.0" r="6" fill="#28c840" opacity="1"/><rect x="340.0" y="110" width="360" height="24" rx="12.0" fill="#fff" opacity="0.9"/><rect x="70" y="144" width="900" height="656" rx="0" fill="#fffaf7" opacity="1"/><rect x="70" y="144" width="220" height="656" rx="0" fill="#3b1d12" opacity="1"/><circle cx="104" cy="188" r="16" fill="#fb923c" opacity="1"/><text x="130" y="194" font-family="Helvetica Neue, Helvetica, Arial, sans-serif" font-size="19" font-weight="700" fill="#fff" text-anchor="start" letter-spacing="0">loomhouse</text><rect x="94" y="250" width="16" height="16" rx="4" fill="#a7765f" opacity="0.6"/><rect x="122" y="253" width="100" height="10" rx="5" fill="#a7765f" opacity="0.7"/><rect x="94" y="294" width="16" height="16" rx="4" fill="#a7765f" opacity="0.6"/><rect x="122" y="297" width="90" height="10" rx="5" fill="#a7765f" opacity="0.7"/><rect x="94" y="338" width="16" height="16" rx="4" fill="#a7765f" opacity="1"/><rect x="122" y="341" width="110" height="10" rx="5" fill="#a7765f" opacity="1"/><rect x="94" y="382" width="16" height="16" rx="4" fill="#a7765f" opacity="0.6"/><rect x="122" y="385" width="80" height="10" rx="5" fill="#a7765f" opacity="0.7"/><text x="316" y="196" font-family="Helvetica Neue, Helvetica, Arial, sans-serif" font-size="26" font-weight="800" fill="#3b1d12" text-anchor="start" letter-spacing="0">Site health</text><rect x="316" y="224" width="300" height="300" rx="18" fill="#fff" opacity="1"/><circle cx="466" cy="354" r="84" fill="none" opacity="1" stroke="#fde5d3" stroke-width="18"/><circle cx="466" cy="354" r="84" fill="none" stroke="#f97316" stroke-width="18" stroke-linecap="round" stroke-dasharray="485.6 527.8" transform="rotate(-90 466 354)"/><text x="466" y="368" font-family="Helvetica Neue, Helvetica, Arial, sans-serif" font-size="52" font-weight="800" fill="#3b1d12" text-anchor="middle" letter-spacing="0">92</text><text x="466" y="478" font-family="Helvetica Neue, Helvetica, Arial, sans-serif" font-size="16" font-weight="700" fill="#c2410c" text-anchor="middle" letter-spacing="0">Healthy</text><text x="466" y="504" font-family="Helvetica Neue, Helvetica, Arial, sans-serif" font-size="12" font-weight="500" fill="#a7765f" text-anchor="middle" letter-spacing="0">Up from before the audit</text><rect x="636" y="224" width="314" height="300" rx="18" fill="#fff" opacity="1"/><text x="660" y="258" font-family="Helvetica Neue, Helvetica, Arial, sans-serif" font-size="14" font-weight="600" fill="#a7765f" text-anchor="start" letter-spacing="0">Issues</text><text x="660" y="300" font-family="Helvetica Neue, Helvetica, Arial, sans-serif" font-size="14" font-weight="600" fill="#3b1d12" text-anchor="start" letter-spacing="0">Broken links</text><rect x="842" y="282" width="84" height="26" rx="13" fill="#dcfce7" opacity="1"/><text x="884.0" y="300" font-family="Helvetica Neue, Helvetica, Arial, sans-serif" font-size="12" font-weight="700" fill="#166534" text-anchor="middle" letter-spacing="0">Fixed</text><text x="660" y="348" font-family="Helvetica Neue, Helvetica, Arial, sans-serif" font-size="14" font-weight="600" fill="#3b1d12" text-anchor="start" letter-spacing="0">Duplicate titles</text><rect x="842" y="330" width="84" height="26" rx="13" fill="#dcfce7" opacity="1"/><text x="884.0" y="348" font-family="Helvetica Neue, Helvetica, Arial, sans-serif" font-size="12" font-weight="700" fill="#166534" text-anchor="middle" letter-spacing="0">Fixed</text><text x="660" y="396" font-family="Helvetica Neue, Helvetica, Arial, sans-serif" font-size="14" font-weight="600" fill="#3b1d12" text-anchor="start" letter-spacing="0">Slow product images</text><rect x="842" y="378" width="84" height="26" rx="13" fill="#dcfce7" opacity="1"/><text x="884.0" y="396" font-family="Helvetica Neue, Helvetica, Arial, sans-serif" font-size="12" font-weight="700" fill="#166534" text-anchor="middle" letter-spacing="0">Fixed</text><text x="660" y="444" font-family="Helvetica Neue, Helvetica, Arial, sans-serif" font-size="14" font-weight="600" fill="#3b1d12" text-anchor="start" letter-spacing="0">Missing alt text</text><rect x="822" y="426" width="104" height="26" rx="13" fill="#fef3c7" opacity="1"/><text x="874.0" y="444" font-family="Helvetica Neue, Helvetica, Arial, sans-serif" font-size="12" font-weight="700" fill="#92400e" text-anchor="middle" letter-spacing="0">In progress</text><text x="660" y="492" font-family="Helvetica Neue, Helvetica, Arial, sans-serif" font-size="14" font-weight="600" fill="#3b1d12" text-anchor="start" letter-spacing="0">Redirect chains</text><rect x="842" y="474" width="84" height="26" rx="13" fill="#dcfce7" opacity="1"/><text x="884.0" y="492" font-family="Helvetica Neue, Helvetica, Arial, sans-serif" font-size="12" font-weight="700" fill="#166534" text-anchor="middle" letter-spacing="0">Fixed</text><rect x="316" y="548" width="202" height="110" rx="16" fill="#fff" opacity="1"/><text x="338" y="582" font-family="Helvetica Neue, Helvetica, Arial, sans-serif" font-size="13" font-weight="600" fill="#a7765f" text-anchor="start" letter-spacing="0">Pages crawled</text><text x="338" y="634" font-family="Helvetica Neue, Helvetica, Arial, sans-serif" font-size="34" font-weight="800" fill="#ea580c" text-anchor="start" letter-spacing="0">All</text><rect x="530" y="548" width="202" height="110" rx="16" fill="#fff" opacity="1"/><text x="552" y="582" font-family="Helvetica Neue, Helvetica, Arial, sans-serif" font-size="13" font-weight="600" fill="#a7765f" text-anchor="start" letter-spacing="0">Pages indexed</text><text x="552" y="634" font-family="Helvetica Neue, Helvetica, Arial, sans-serif" font-size="34" font-weight="800" fill="#ea580c" text-anchor="start" letter-spacing="0">Up</text><rect x="744" y="548" width="202" height="110" rx="16" fill="#fff" opacity="1"/><text x="766" y="582" font-family="Helvetica Neue, Helvetica, Arial, sans-serif" font-size="13" font-weight="600" fill="#a7765f" text-anchor="start" letter-spacing="0">Load speed</text><text x="766" y="634" font-family="Helvetica Neue, Helvetica, Arial, sans-serif" font-size="34" font-weight="800" fill="#ea580c" text-anchor="start" letter-spacing="0">Fast</text><rect x="316" y="682" width="634" height="78" rx="16" fill="#fff" opacity="1"/><text x="340" y="716" font-family="Helvetica Neue, Helvetica, Arial, sans-serif" font-size="13" font-weight="600" fill="#a7765f" text-anchor="start" letter-spacing="0">Next up</text><text x="340" y="744" font-family="Helvetica Neue, Helvetica, Arial, sans-serif" font-size="16" font-weight="700" fill="#3b1d12" text-anchor="start" letter-spacing="0">Add product schema to every collection page</text></g></g></g><g filter="url(#sh)"><rect x="900" y="130" width="270" height="670" rx="44" fill="#3b1d12"/><clipPath id="hp3"><rect x="910" y="140" width="250" height="650" rx="34"/></clipPath><g clip-path="url(#hp3)"><rect x="930" y="150" width="240" height="640" rx="0" fill="#fff" opacity="1"/><rect x="930" y="150" width="240" height="250" rx="0" fill="#fde5d3" opacity="1"/><rect x="990" y="196" width="120" height="170" rx="14" fill="#fb923c" opacity="1"/><rect x="1004" y="214" width="92" height="10" rx="5" fill="#fff" opacity="0.7"/><text x="950" y="438" font-family="Helvetica Neue, Helvetica, Arial, sans-serif" font-size="20" font-weight="800" fill="#3b1d12" text-anchor="start" letter-spacing="0">Linen throw</text><text x="950" y="466" font-family="Helvetica Neue, Helvetica, Arial, sans-serif" font-size="14" font-weight="500" fill="#a7765f" text-anchor="start" letter-spacing="0">Hand-woven</text><rect x="950" y="490" width="76" height="28" rx="14" fill="#dcfce7" opacity="1"/><text x="988" y="509" font-family="Helvetica Neue, Helvetica, Arial, sans-serif" font-size="13" font-weight="700" fill="#166534" text-anchor="middle" letter-spacing="0">Fast</text><rect x="1036" y="490" width="110" height="28" rx="14" fill="#fff1e6" opacity="1"/><text x="1091" y="509" font-family="Helvetica Neue, Helvetica, Arial, sans-serif" font-size="13" font-weight="700" fill="#c2410c" text-anchor="middle" letter-spacing="0">In stock</text><rect x="950" y="548" width="200" height="52" rx="26" fill="#3b1d12" opacity="1"/><text x="1050" y="580" font-family="Helvetica Neue, Helvetica, Arial, sans-serif" font-size="15" font-weight="700" fill="#fff" text-anchor="middle" letter-spacing="0">Add to bag</text></g><rect x="991.0" y="148" width="88" height="24" rx="12" fill="#3b1d12" opacity="1"/></g></svg>